<mxfile host="www.draw.io" modified="2019-10-24T08:20:31.235Z" agent="Mozilla/5.0 (Macintosh; Intel Mac OS X 10_15_0) AppleWebKit/537.36 (KHTML, like Gecko) Chrome/77.0.3865.120 Safari/537.36" etag="MI7unPsd7X42jGk0gm00" version="12.1.4" type="github" pages="1">
  <diagram id="BOTKWVRAujg0s6rX3rG4" name="Page-1">
    <mxGraphModel dx="1540" dy="852" grid="1" gridSize="10" guides="1" tooltips="1" connect="1" arrows="1" fold="1" page="1" pageScale="1" pageWidth="850" pageHeight="1100" math="0" shadow="0">
      <root>
        <mxCell id="0"/>
        <mxCell id="1" parent="0"/>
        <mxCell id="995s1AaUSaoDGZbzYbmt-1" value="" style="endArrow=none;html=1;entryX=0.5;entryY=1;entryDx=0;entryDy=0;" edge="1" parent="1">
          <mxGeometry width="50" height="50" relative="1" as="geometry">
            <mxPoint x="959.5" y="320" as="sourcePoint"/>
            <mxPoint x="959.5" y="190" as="targetPoint"/>
          </mxGeometry>
        </mxCell>
        <mxCell id="995s1AaUSaoDGZbzYbmt-2" value="&lt;h1&gt;Cerberus. Pay&lt;/h1&gt;&lt;div&gt;This flow shows the payment and confirmation flow&lt;/div&gt;" style="text;html=1;strokeColor=none;fillColor=none;spacing=5;spacingTop=-20;whiteSpace=wrap;overflow=hidden;rounded=0;" vertex="1" parent="1">
          <mxGeometry x="40" y="20" width="320" height="80" as="geometry"/>
        </mxCell>
        <mxCell id="995s1AaUSaoDGZbzYbmt-3" value="Metamask" style="rounded=1;whiteSpace=wrap;html=1;fillColor=#fff2cc;strokeColor=#d6b656;" vertex="1" parent="1">
          <mxGeometry x="40" y="160" width="220" height="30" as="geometry"/>
        </mxCell>
        <mxCell id="995s1AaUSaoDGZbzYbmt-4" value="" style="endArrow=none;html=1;entryX=0.5;entryY=1;entryDx=0;entryDy=0;" edge="1" parent="1" target="995s1AaUSaoDGZbzYbmt-3">
          <mxGeometry width="50" height="50" relative="1" as="geometry">
            <mxPoint x="150" y="320" as="sourcePoint"/>
            <mxPoint x="230" y="270" as="targetPoint"/>
          </mxGeometry>
        </mxCell>
        <mxCell id="995s1AaUSaoDGZbzYbmt-5" value="SmartContract" style="rounded=1;whiteSpace=wrap;html=1;fillColor=#d5e8d4;strokeColor=#82b366;" vertex="1" parent="1">
          <mxGeometry x="310" y="160" width="220" height="30" as="geometry"/>
        </mxCell>
        <mxCell id="995s1AaUSaoDGZbzYbmt-6" value="" style="endArrow=none;html=1;entryX=0.5;entryY=1;entryDx=0;entryDy=0;" edge="1" parent="1">
          <mxGeometry width="50" height="50" relative="1" as="geometry">
            <mxPoint x="419.5" y="320" as="sourcePoint"/>
            <mxPoint x="419.5" y="190" as="targetPoint"/>
          </mxGeometry>
        </mxCell>
        <mxCell id="995s1AaUSaoDGZbzYbmt-7" value="ChainLink Alarm" style="rounded=1;whiteSpace=wrap;html=1;fillColor=#dae8fc;strokeColor=#6c8ebf;" vertex="1" parent="1">
          <mxGeometry x="580" y="160" width="220" height="30" as="geometry"/>
        </mxCell>
        <mxCell id="995s1AaUSaoDGZbzYbmt-8" value="Approver" style="rounded=1;whiteSpace=wrap;html=1;fillColor=#f5f5f5;strokeColor=#666666;fontColor=#333333;" vertex="1" parent="1">
          <mxGeometry x="850" y="160" width="220" height="30" as="geometry"/>
        </mxCell>
        <mxCell id="995s1AaUSaoDGZbzYbmt-9" value="Mobile App" style="rounded=1;whiteSpace=wrap;html=1;fillColor=#f5f5f5;strokeColor=#666666;fontColor=#333333;" vertex="1" parent="1">
          <mxGeometry x="1120" y="160" width="220" height="30" as="geometry"/>
        </mxCell>
        <mxCell id="995s1AaUSaoDGZbzYbmt-10" value="" style="endArrow=none;html=1;entryX=0.5;entryY=1;entryDx=0;entryDy=0;" edge="1" parent="1">
          <mxGeometry width="50" height="50" relative="1" as="geometry">
            <mxPoint x="689.5" y="320" as="sourcePoint"/>
            <mxPoint x="689.5" y="190" as="targetPoint"/>
          </mxGeometry>
        </mxCell>
        <mxCell id="995s1AaUSaoDGZbzYbmt-11" value="" style="endArrow=none;html=1;entryX=0.5;entryY=1;entryDx=0;entryDy=0;" edge="1" parent="1">
          <mxGeometry width="50" height="50" relative="1" as="geometry">
            <mxPoint x="959.5" y="320" as="sourcePoint"/>
            <mxPoint x="959.5" y="190" as="targetPoint"/>
          </mxGeometry>
        </mxCell>
        <mxCell id="995s1AaUSaoDGZbzYbmt-12" value="" style="endArrow=none;html=1;entryX=0.5;entryY=1;entryDx=0;entryDy=0;" edge="1" parent="1">
          <mxGeometry width="50" height="50" relative="1" as="geometry">
            <mxPoint x="1229.5" y="320" as="sourcePoint"/>
            <mxPoint x="1229.5" y="190" as="targetPoint"/>
          </mxGeometry>
        </mxCell>
      </root>
    </mxGraphModel>
  </diagram>
</mxfile>
